<svg id="logo_copy" data-name="logo copy" xmlns="http://www.w3.org/2000/svg" viewBox="0 0 210.54 51.61"><title>axxess_logo</title><path d="M77.59,50.07a0.34,0.34,0,0,0,.13.28,1.1,1.1,0,0,0,.54.09v0.45H71.58V50.44a1.21,1.21,0,0,0,.62-0.25,1.79,1.79,0,0,0,.37-0.62l0.38-1c0.2-.55.46-1.25,0.79-2.09s0.69-1.78,1.1-2.8,0.8-2.07,1.21-3.14l1.18-3.13c0.4-1,.74-1.93,1-2.73s0.55-1.46.73-2,0.28-.77.28-0.79A0.29,0.29,0,0,0,79,31.65a3.38,3.38,0,0,0-.51-0.11V31.08h9.84v0.45a2,2,0,0,0-.49.11,0.35,0.35,0,0,0-.19.37,8.61,8.61,0,0,0,.36,1L89,35.36c0.38,1,.82,2.06,1.31,3.27s1,2.47,1.52,3.73,1,2.51,1.53,3.71,0.93,2.29,1.34,3.24a3.36,3.36,0,0,0,.51.9,0.7,0.7,0,0,0,.54.23v0.45H88.3V50.44c0.48,0,.72-0.18.72-0.45,0,0-.08-0.19-0.2-0.51s-0.26-.66-0.41-1-0.3-.76-0.43-1.11a5.71,5.71,0,0,1-.25-0.71H78.8c-0.26.68-.45,1.22-0.6,1.65l-0.36,1c-0.08.25-.15,0.43-0.19,0.55A1.21,1.21,0,0,0,77.59,50.07Zm9.16-6.48-3.66-9-3.36,9h7Z" transform="translate(-14.73 -6.69)"/><path d="M99,50.44a1.44,1.44,0,0,0,.87-0.64l7.54-9-7-8.82a1.6,1.6,0,0,0-.47-0.39,1,1,0,0,0-.4-0.09V31.08h8.82v0.45a3.08,3.08,0,0,0-.67.11,0.35,0.35,0,0,0-.22.38,3.44,3.44,0,0,0,.48.7c0.33,0.41.7,0.87,1.11,1.36s0.81,1,1.17,1.4l0.7,0.85,0.79-.92c0.38-.44.76-0.9,1.16-1.38l1-1.3a2.5,2.5,0,0,0,.47-0.7,0.38,0.38,0,0,0-.29-0.4,1.5,1.5,0,0,0-.51-0.09V31.08h8.63v0.45a1.24,1.24,0,0,0-.94.45l-6.94,8.59L122,50.25a0.41,0.41,0,0,0,.3.18l0.37,0v0.45h-8.82V50.44c0.48,0,.71-0.07.71-0.19a1.88,1.88,0,0,0-.36-0.67c-0.24-.36-0.53-0.78-0.9-1.27l-1.21-1.58-1.26-1.65a7,7,0,0,1-.48.61l-0.79.9c-0.29.33-.59,0.67-0.93,1l-0.9,1c-0.27.33-.5,0.61-0.68,0.85a1.12,1.12,0,0,0-.25.51,0.34,0.34,0,0,0,.34.36,3.07,3.07,0,0,0,.56.06v0.45H99V50.44Z" transform="translate(-14.73 -6.69)"/><path d="M126.23,50.44a1.4,1.4,0,0,0,.87-0.64l7.53-9-7-8.82a1.62,1.62,0,0,0-.48-0.39,0.9,0.9,0,0,0-.39-0.09V31.08h8.82v0.45a3.2,3.2,0,0,0-.68.11,0.35,0.35,0,0,0-.22.38,3.13,3.13,0,0,0,.49.7c0.32,0.41.69,0.87,1.11,1.36l1.16,1.4,0.71,0.85,0.78-.92c0.38-.44.77-0.9,1.14-1.38s0.75-.91,1.06-1.3a2.42,2.42,0,0,0,.47-0.7,0.39,0.39,0,0,0-.28-0.4,1.55,1.55,0,0,0-.5-0.09V31.08h8.63v0.45a1.25,1.25,0,0,0-.94.45l-6.93,8.59,7.65,9.67a0.41,0.41,0,0,0,.3.18l0.37,0v0.45H141.1V50.44c0.47,0,.7-0.07.7-0.19a1.93,1.93,0,0,0-.35-0.67q-0.36-.53-0.91-1.27c-0.36-.48-0.76-1-1.2-1.58l-1.26-1.65a4,4,0,0,1-.47.61c-0.23.28-.5,0.58-0.79,0.9l-0.92,1c-0.34.37-.63,0.71-0.91,1s-0.5.61-.68,0.85A1.12,1.12,0,0,0,134,50a0.34,0.34,0,0,0,.33.36,3.4,3.4,0,0,0,.57.06v0.45h-8.71V50.44Z" transform="translate(-14.73 -6.69)"/><path d="M169.58,43.64a1.19,1.19,0,0,0-.32-0.62,1.12,1.12,0,0,0-.81-0.25h-7v3.51h12.1a0.51,0.51,0,0,0,.45-0.2,2.21,2.21,0,0,0,.23-0.93h0.45v6.47h-0.45A1,1,0,0,0,174,51a0.72,0.72,0,0,0-.45-0.12H154.71V50.44a1.59,1.59,0,0,0,.88-0.25,0.57,0.57,0,0,0,.17-0.43V32.17a0.57,0.57,0,0,0-.17-0.44,1.64,1.64,0,0,0-.88-0.24V31h18.83a0.53,0.53,0,0,0,.45-0.2,1.86,1.86,0,0,0,.23-0.81h0.45v6.53h-0.45a2,2,0,0,0-.23-0.85,0.51,0.51,0,0,0-.45-0.21h-12.1v3.13h7a1.14,1.14,0,0,0,.81-0.24,1.19,1.19,0,0,0,.32-0.63H170v5.87h-0.46Z" transform="translate(-14.73 -6.69)"/><path d="M181.56,43.36a2.94,2.94,0,0,0-.08.84,1.33,1.33,0,0,0,.7.91,8.65,8.65,0,0,0,1.8,1,15.75,15.75,0,0,0,2.54.74,13.55,13.55,0,0,0,2.88.31,9.09,9.09,0,0,0,4.13-.71,2.2,2.2,0,0,0,1.32-2,1.2,1.2,0,0,0-1.15-1,20.44,20.44,0,0,0-2.88-.48l-3.72-.4a17.67,17.67,0,0,1-3.73-.81A7.47,7.47,0,0,1,180.51,40a4,4,0,0,1-1.15-3,5.78,5.78,0,0,1,.66-2.77A6.32,6.32,0,0,1,181.86,32a9.12,9.12,0,0,1,2.89-1.39,13.13,13.13,0,0,1,3.76-.51,22.33,22.33,0,0,1,3.58.27c1.12,0.17,2.09.36,2.94,0.58s1.58,0.41,2.16.59a5,5,0,0,0,1.24.26,1,1,0,0,0,.6-0.18,2.92,2.92,0,0,0,.42-0.42l0.41,0.16-2.6,5.6-0.45-.24V36.27a1.07,1.07,0,0,0-.73-0.75,9.23,9.23,0,0,0-1.87-.69,21.5,21.5,0,0,0-2.52-.5,18.35,18.35,0,0,0-2.72-.21,6.93,6.93,0,0,0-3.43.61,1.62,1.62,0,0,0-1,1.29,1.1,1.1,0,0,0,.67,1,5.74,5.74,0,0,0,1.76.51c0.73,0.11,1.56.19,2.49,0.26s1.89,0.17,2.86.3a24.84,24.84,0,0,1,2.86.57,8.54,8.54,0,0,1,2.48,1.07,5.27,5.27,0,0,1,2.44,4.75,7.14,7.14,0,0,1-.51,2.62,5.74,5.74,0,0,1-1.73,2.32,9,9,0,0,1-3.27,1.64,18.28,18.28,0,0,1-5.1.6,27.77,27.77,0,0,1-4.07-.25,22.26,22.26,0,0,1-2.91-.58,19.74,19.74,0,0,1-1.9-.63,3.27,3.27,0,0,0-1-.29,0.55,0.55,0,0,0-.4.16,5,5,0,0,0-.36.37l-0.46-.12,2.79-7.2Z" transform="translate(-14.73 -6.69)"/><path d="M206.7,43.36a3,3,0,0,0-.08.84,1.33,1.33,0,0,0,.69.91,8.53,8.53,0,0,0,1.8,1,16.14,16.14,0,0,0,2.53.74,13.77,13.77,0,0,0,2.9.31,9.05,9.05,0,0,0,4.12-.71,2.2,2.2,0,0,0,1.32-2,1.2,1.2,0,0,0-1.15-1,20.16,20.16,0,0,0-2.87-.48l-3.73-.4a17.78,17.78,0,0,1-3.72-.81A7.47,7.47,0,0,1,205.64,40a4.06,4.06,0,0,1-1.14-3,5.79,5.79,0,0,1,.66-2.77A6.21,6.21,0,0,1,207,32a9.1,9.1,0,0,1,2.88-1.39,13.22,13.22,0,0,1,3.77-.51,22.41,22.41,0,0,1,3.58.27c1.11,0.17,2.08.36,2.94,0.58s1.57,0.41,2.15.59a5.1,5.1,0,0,0,1.24.26,1,1,0,0,0,.6-0.18,3.63,3.63,0,0,0,.42-0.42l0.4,0.16-2.6,5.6-0.45-.24V36.27a1.08,1.08,0,0,0-.74-0.75,9.58,9.58,0,0,0-1.86-.69,21.75,21.75,0,0,0-2.53-.5,18.35,18.35,0,0,0-2.71-.21,7,7,0,0,0-3.44.61,1.64,1.64,0,0,0-1,1.29,1.1,1.1,0,0,0,.68,1,5.83,5.83,0,0,0,1.77.51c0.73,0.11,1.55.19,2.48,0.26s1.88,0.17,2.86.3a24.88,24.88,0,0,1,2.86.57,8.67,8.67,0,0,1,2.48,1.07,5.53,5.53,0,0,1,1.77,1.86,5.64,5.64,0,0,1,.67,2.88,7,7,0,0,1-.51,2.62A5.8,5.8,0,0,1,223,49.45a9,9,0,0,1-3.28,1.64,18.2,18.2,0,0,1-5.09.6,27.76,27.76,0,0,1-4.08-.25,22.49,22.49,0,0,1-2.91-.58c-0.8-.23-1.45-0.44-1.91-0.63a3.11,3.11,0,0,0-1-.29,0.56,0.56,0,0,0-.4.16l-0.36.37-0.45-.12,2.78-7.2Z" transform="translate(-14.73 -6.69)"/><path d="M68,27.06a21.49,21.49,0,0,0,.44-4.4l-0.82.51A12.54,12.54,0,0,1,68,27.06Z" transform="translate(-14.73 -6.69)" style="fill:#b8243c"/><path d="M18.89,32.1c0.27,0.55.58,1.11,0.93,1.68h0c0.24-.15.48-0.27,0.72-0.4-0.06-.25-0.12-0.49-0.17-0.72-1.44-6.88,4-11.65,10.8-13.42,5.71-1.5,9.38,1.66,12.43,4a11.54,11.54,0,0,0,3.51,2.1,9.93,9.93,0,0,1-1.56-1.74,5.59,5.59,0,0,1-1.12-3,15.7,15.7,0,0,1,9.82-6.31,11.67,11.67,0,0,1,10.43,3.62l2.72-1.69a13.45,13.45,0,0,0-6.25-7.92A14.37,14.37,0,0,0,51.49,7a12.11,12.11,0,0,0-3.91,1.66,15.4,15.4,0,0,0-5.95,8.15c-0.29-.58-3.45-4.94-11.26-5a11.13,11.13,0,0,0-4.74,1.13,14.54,14.54,0,0,0-1.69.93C18.84,17.12,14.89,23.92,18.89,32.1Z" transform="translate(-14.73 -6.69)" style="fill:#b8243c"/><path d="M83.5,13.31L85.69,12l-3.17-5.1L68.3,15.69l-0.9.56-2.72,1.69-1.26.78-29,18c-3.56-3.86-8.69-5.38-12.93-3.78a7.49,7.49,0,0,0-.73.31l-0.2.1c-0.24.12-.48,0.25-0.72,0.4h0c-0.19.12-.37,0.25-0.55,0.37s-0.44.34-.65,0.52c-3.22,2.8-4.33,7.58-3,12.23a4.53,4.53,0,0,0,4.44,7.14c4,3.63,9.49,4.61,13.65,2a9.66,9.66,0,0,0,3.23-3.35c-1.34-.89-2.62-1.78-3.82-2.65A6.12,6.12,0,0,1,31.17,52a7.05,7.05,0,0,1-7.78-.57,4.52,4.52,0,0,0-4-6.38,7,7,0,0,1,2.93-7.23c3.31-2.05,8-.54,10.4,3.37a9.45,9.45,0,0,1,1.43,4.56c1.31,0.61,2.73,1.21,4.24,1.76a14,14,0,0,0-.88-5.67L66.34,24l0.79-.49,0.49-.3,0.82-.51,0,0,0.92-.57,1.22-.76,4.23,6.79,12.86-8Zm-1.26,8.27-3,1.91-1.53-2.42L75.25,22.6l-1.91-3L75.76,18l-1.53-2.43,3-1.91,1.53,2.43,2.42-1.54,1.92,3-2.42,1.53Z" transform="translate(-14.73 -6.69)"/><path d="M23.5,39.11a58.33,58.33,0,0,0,7.83,7.29A98.08,98.08,0,0,0,50.57,58.31l0.68-.84C66,39.22,67.61,28.8,67.61,28.8a21.63,21.63,0,0,1-1.72,3.61,48.32,48.32,0,0,1-4.51,6.36c-4.53,5.48-10.09,10.4-12.53,11.41a52,52,0,0,1-10.42-2.66c-1.51-.55-2.93-1.15-4.24-1.76A47,47,0,0,1,23.5,39.11Z" transform="translate(-14.73 -6.69)" style="fill:#b8243c"/></svg>